<svg id="working" xmlns="http://www.w3.org/2000/svg" width="77.307" height="77.307" viewBox="0 0 77.307 77.307">
  <path id="Path_1" data-name="Path 1" d="M141.394,302.547a1.757,1.757,0,0,1,1.757,1.756v24.6a1.757,1.757,0,1,1-3.514,0V304.3A1.757,1.757,0,0,1,141.394,302.547Zm0,0" transform="translate(-118.553 -256.866)" fill="#e1811c"/>
  <path id="Path_2" data-name="Path 2" d="M17.572,253.81H7.127a3.514,3.514,0,0,1-3.466-2.936L.052,236.818a3.514,3.514,0,0,1,3.466-4.091H13.963a3.514,3.514,0,0,1,3.466,2.936l3.609,14.056a3.513,3.513,0,0,1-3.466,4.091Zm0,0" transform="translate(-0.003 -197.587)" fill="#133244"/>
  <path id="Path_3" data-name="Path 3" d="M3.722,253.1a1.759,1.759,0,0,0-1.7,2.19l2.624,10.221a1.757,1.757,0,0,0,3.4-.879L5.423,254.418A1.758,1.758,0,0,0,3.722,253.1Zm0,0" transform="translate(-1.668 -214.883)" fill="#091922"/>
  <path id="Path_4" data-name="Path 4" d="M49.628,352.6H25.03a1.757,1.757,0,0,1,0-3.514h24.6a1.757,1.757,0,0,1,0,3.514Zm0,0" transform="translate(-19.759 -296.381)" fill="#184660"/>
  <path id="Path_5" data-name="Path 5" d="M35.572,352.6H25.03a1.757,1.757,0,0,1,0-3.514H35.572a1.757,1.757,0,0,1,0,3.514Zm0,0" transform="translate(-19.759 -296.381)" fill="#091922"/>
  <path id="Path_6" data-name="Path 6" d="M69.816,372.363v3.514H83.873a3.514,3.514,0,0,1,3.514,3.514v3.514a3.514,3.514,0,0,1-3.514,3.513H69.816v3.514H83.873a7.027,7.027,0,0,0,7.027-7.027v-3.514a7.028,7.028,0,0,0-7.027-7.028Zm0,0" transform="translate(-59.275 -316.14)" fill="#fff"/>
  <path id="Path_7" data-name="Path 7" d="M71.577,372.363H82.119a1.757,1.757,0,0,1,0,3.514H71.577a1.757,1.757,0,0,1,0-3.514Zm0,0" transform="translate(-59.278 -316.14)" fill="#d6d6d6"/>
  <path id="Path_8" data-name="Path 8" d="M55.331,468.967H48.3a1.757,1.757,0,0,1,0-3.514h7.027a1.757,1.757,0,0,1,0,3.514Zm0,0" transform="translate(-39.519 -395.175)" fill="#d0d0d0"/>
  <path id="Path_9" data-name="Path 9" d="M26.787,372.363v3.514H30.3a3.514,3.514,0,0,1,3.513,3.514v3.514a3.513,3.513,0,0,1-3.513,3.513H23.273v3.514H30.3a7.028,7.028,0,0,0,7.027-7.027v-3.514a7.028,7.028,0,0,0-7.027-7.028Zm0,0" transform="translate(-19.759 -316.14)" fill="#fff"/>
  <path id="Path_10" data-name="Path 10" d="M5.271,468.967H1.757a1.757,1.757,0,1,1,0-3.514H5.271a1.757,1.757,0,1,1,0,3.514Zm0,0" transform="translate(0 -395.175)" fill="#fff"/>
  <path id="Path_11" data-name="Path 11" d="M28.544,375.877H25.03a1.757,1.757,0,1,1,0-3.514h3.514a1.757,1.757,0,0,1,0,3.514Zm0,0" transform="translate(-19.759 -316.14)" fill="#d6d6d6"/>
  <path id="Path_12" data-name="Path 12" d="M375.881,253.81h10.445a3.514,3.514,0,0,0,3.466-2.936l3.609-14.056a3.514,3.514,0,0,0-3.466-4.092H379.491a3.514,3.514,0,0,0-3.466,2.937l-3.609,14.056a3.513,3.513,0,0,0,3.466,4.091Zm0,0" transform="translate(-316.144 -197.587)" fill="#133244"/>
  <path id="Path_13" data-name="Path 13" d="M420.667,232.727h7.027a1.757,1.757,0,0,1,0,3.514h-7.027a1.757,1.757,0,1,1,0-3.514Zm0,0" transform="translate(-355.659 -197.587)" fill="#133a50"/>
  <path id="Path_14" data-name="Path 14" d="M473.779,253.1a1.758,1.758,0,0,0-1.7,1.321l-2.622,10.21a1.757,1.757,0,0,0,3.4.88l2.624-10.221a1.758,1.758,0,0,0-1.7-2.19Zm0,0" transform="translate(-398.527 -214.883)" fill="#091922"/>
  <path id="Path_15" data-name="Path 15" d="M374.12,325.816h10.542a1.757,1.757,0,1,1,0,3.514H374.12a1.757,1.757,0,0,1,0-3.514Zm0,0" transform="translate(-316.14 -276.622)" fill="#133244"/>
  <path id="Path_16" data-name="Path 16" d="M48.3,325.816H58.845a1.757,1.757,0,1,1,0,3.514H48.3a1.757,1.757,0,0,1,0-3.514Zm0,0" transform="translate(-39.519 -276.622)" fill="#184660"/>
  <path id="Path_17" data-name="Path 17" d="M304.3,349.09h24.6a1.757,1.757,0,1,1,0,3.514H304.3a1.757,1.757,0,1,1,0-3.514Zm0,0" transform="translate(-256.866 -296.381)" fill="#133244"/>
  <path id="Path_18" data-name="Path 18" d="M397.394,349.09h10.542a1.757,1.757,0,0,1,0,3.514H397.394a1.757,1.757,0,1,1,0-3.514Zm0,0" transform="translate(-335.9 -296.381)" fill="#091922"/>
  <path id="Path_19" data-name="Path 19" d="M323.631,372.363v3.514H309.574a3.514,3.514,0,0,0-3.514,3.514v3.514a3.514,3.514,0,0,0,3.514,3.513H316.6v3.514h-7.028a7.027,7.027,0,0,1-7.027-7.027v-3.514a7.028,7.028,0,0,1,7.027-7.028Zm0,0" transform="translate(-256.866 -316.14)" fill="#fff"/>
  <path id="Path_20" data-name="Path 20" d="M397.394,372.363h10.542a1.757,1.757,0,1,1,0,3.514H397.394a1.757,1.757,0,1,1,0-3.514Zm0,0" transform="translate(-335.9 -316.14)" fill="#b9b9b9"/>
  <path id="Path_21" data-name="Path 21" d="M304.3,418.91a1.756,1.756,0,0,1,1.756,1.757v3.513a1.757,1.757,0,1,1-3.513,0v-3.513A1.756,1.756,0,0,1,304.3,418.91Zm0,0" transform="translate(-256.866 -355.659)" fill="#b9b9b9"/>
  <path id="Path_22" data-name="Path 22" d="M374.12,465.453h10.542a1.757,1.757,0,1,1,0,3.514H374.12a1.757,1.757,0,0,1,0-3.514Zm0,0" transform="translate(-316.14 -395.175)" fill="#dee1c8"/>
  <path id="Path_23" data-name="Path 23" d="M397.394,465.453h10.542a1.757,1.757,0,0,1,0,3.514H397.394a1.757,1.757,0,1,1,0-3.514Zm0,0" transform="translate(-335.9 -395.175)" fill="#d6d6d6"/>
  <path id="Path_24" data-name="Path 24" d="M406.178,372.363v3.514h-3.513a3.514,3.514,0,0,0-3.514,3.514v3.514a3.514,3.514,0,0,0,3.514,3.513h7.027v3.514h-7.027a7.028,7.028,0,0,1-7.028-7.027v-3.514a7.028,7.028,0,0,1,7.027-7.028Zm0,0" transform="translate(-335.9 -316.14)" fill="#fff"/>
  <path id="Path_25" data-name="Path 25" d="M467.21,465.453h3.514a1.757,1.757,0,0,1,0,3.514H467.21a1.757,1.757,0,1,1,0-3.514Zm0,0" transform="translate(-395.175 -395.175)" fill="#9fd9c5"/>
  <path id="Path_26" data-name="Path 26" d="M443.941,372.363h3.513a1.757,1.757,0,1,1,0,3.514h-3.513a1.757,1.757,0,1,1,0-3.514Zm0,0" transform="translate(-375.419 -316.14)" fill="#b9b9b9"/>
  <path id="Path_27" data-name="Path 27" d="M25.03,302.547a1.757,1.757,0,0,1,1.757,1.756v24.6a1.757,1.757,0,1,1-3.514,0V304.3A1.757,1.757,0,0,1,25.03,302.547Zm0,0" transform="translate(-19.759 -256.866)" fill="#e1811c"/>
  <path id="Path_28" data-name="Path 28" d="M1.757,302.547H75.549a1.757,1.757,0,1,1,0,3.513H1.757a1.757,1.757,0,1,1,0-3.513Zm0,0" transform="translate(0 -256.866)" fill="#f0a319"/>
  <path id="Path_29" data-name="Path 29" d="M327.577,302.547h24.6a1.757,1.757,0,1,1,0,3.513h-24.6a1.757,1.757,0,0,1,0-3.513Zm0,0" transform="translate(-276.625 -256.866)" fill="#e1811c"/>
  <path id="Path_30" data-name="Path 30" d="M187.941,372.363h21.083a1.757,1.757,0,1,1,0,3.514H187.941a1.757,1.757,0,1,1,0-3.514Zm0,0" transform="translate(-158.072 -316.14)" fill="#184660"/>
  <path id="Path_31" data-name="Path 31" d="M189.7,256h10.542a3.514,3.514,0,0,1,3.514,3.514V273.57a3.514,3.514,0,0,1-3.514,3.514H189.7a3.514,3.514,0,0,1-3.513-3.514V259.514A3.514,3.514,0,0,1,189.7,256Zm0,0" transform="translate(-158.072 -217.347)" fill="#133244"/>
  <path id="Path_32" data-name="Path 32" d="M281.03,279.273a1.757,1.757,0,0,1,1.757,1.757v10.542a1.757,1.757,0,1,1-3.514,0V281.03A1.757,1.757,0,0,1,281.03,279.273Zm0,0" transform="translate(-237.106 -237.106)" fill="#091922"/>
  <path id="Path_33" data-name="Path 33" d="M259.514,395.637v3.514h3.514a3.514,3.514,0,0,1,3.514,3.514v3.513a3.514,3.514,0,0,1-3.514,3.514H256v3.514h7.028a7.028,7.028,0,0,0,7.027-7.028v-3.513a7.028,7.028,0,0,0-7.027-7.028Zm0,0" transform="translate(-217.347 -335.9)" fill="#fff"/>
  <path id="Path_34" data-name="Path 34" d="M238,492.241h-3.514a1.757,1.757,0,0,1,0-3.514H238a1.757,1.757,0,0,1,0,3.514Zm0,0" transform="translate(-197.587 -414.934)" fill="#eeefe1"/>
  <path id="Path_35" data-name="Path 35" d="M261.271,399.151h-3.514a1.757,1.757,0,1,1,0-3.514h3.514a1.757,1.757,0,1,1,0,3.514Zm0,0" transform="translate(-217.347 -335.9)" fill="#eeefe1"/>
  <path id="Path_36" data-name="Path 36" d="M189.7,395.637v3.514h3.514a3.514,3.514,0,0,1,3.514,3.514v3.513a3.514,3.514,0,0,1-3.514,3.514h-7.027v3.514h7.027a7.028,7.028,0,0,0,7.028-7.028v-3.513a7.028,7.028,0,0,0-7.028-7.028Zm0,0" transform="translate(-158.072 -335.9)" fill="#b5b5b5"/>
  <path id="Path_38" data-name="Path 38" d="M168.181,492.241h-3.514a1.757,1.757,0,0,1,0-3.514h3.514a1.757,1.757,0,0,1,0,3.514Zm0,0" transform="translate(-138.312 -414.934)" fill="#eeefe1"/>
  <path id="Path_39" data-name="Path 39" d="M205.51,399.151h-17.57a1.757,1.757,0,1,1,0-3.514h17.57a1.757,1.757,0,0,1,0,3.514Zm0,0" transform="translate(-158.072 -335.9)" fill="#fff"/>
  <path id="Path_40" data-name="Path 40" d="M183.994,492.241H164.667a1.757,1.757,0,0,1,0-3.514h19.327a1.757,1.757,0,0,1,0,3.514Zm0,0" transform="translate(-138.312 -414.934)" fill="#fff"/>
  <path id="Path_41" data-name="Path 41" d="M350.847,302.547A1.757,1.757,0,0,1,352.6,304.3v24.6a1.757,1.757,0,1,1-3.514,0V304.3A1.757,1.757,0,0,1,350.847,302.547Zm0,0" transform="translate(-296.381 -256.866)" fill="#e1811c"/>
  <path id="Path_42" data-name="Path 42" d="M467.21,302.547a1.757,1.757,0,0,1,1.757,1.756v24.6a1.757,1.757,0,1,1-3.514,0V304.3A1.757,1.757,0,0,1,467.21,302.547Zm0,0" transform="translate(-395.175 -256.866)" fill="#e1811c"/>
  <g id="Group_2" data-name="Group 2" transform="translate(3.514 49.195)">
    <path id="Path_43" data-name="Path 43" d="M26.787,327.577a1.757,1.757,0,1,1-1.757-1.756A1.757,1.757,0,0,1,26.787,327.577Zm0,0" transform="translate(-23.273 -325.82)" fill="#db6600"/>
    <path id="Path_44" data-name="Path 44" d="M143.151,327.577a1.757,1.757,0,1,1-1.757-1.756A1.757,1.757,0,0,1,143.151,327.577Zm0,0" transform="translate(-122.067 -325.82)" fill="#db6600"/>
    <path id="Path_45" data-name="Path 45" d="M468.967,327.577a1.757,1.757,0,1,1-1.757-1.756A1.757,1.757,0,0,1,468.967,327.577Zm0,0" transform="translate(-398.689 -325.82)" fill="#db6600"/>
    <path id="Path_46" data-name="Path 46" d="M352.6,327.577a1.757,1.757,0,1,1-1.757-1.756A1.757,1.757,0,0,1,352.6,327.577Zm0,0" transform="translate(-299.895 -325.82)" fill="#db6600"/>
  </g>
  <path id="Path_47" data-name="Path 47" d="M143.15,186.18l7.027,7.028-2.058,2.058a4.969,4.969,0,1,1-7.027-7.027Zm0,0" transform="translate(-118.552 -158.069)" fill="#351534"/>
  <path id="Path_48" data-name="Path 48" d="M162.477,0a15.812,15.812,0,0,0-15.813,15.813,15.642,15.642,0,0,0,.738,4.532l-7.767,7.767,10.542,10.542,7.767-7.767a15.639,15.639,0,0,0,4.532.738,15.813,15.813,0,1,0,0-31.625Zm0,0" transform="translate(-118.553)" fill="#e1811c"/>
  <path id="Path_49" data-name="Path 49" d="M155.449,24.6A15.812,15.812,0,0,0,171.262,8.785a15.639,15.639,0,0,0-1.73-7.054A15.642,15.642,0,0,0,162.477,0a15.812,15.812,0,0,0-15.813,15.813,15.642,15.642,0,0,0,.738,4.532l-7.767,7.767,3.514,3.514,7.767-7.767A15.643,15.643,0,0,0,155.449,24.6Zm0,0" transform="translate(-118.553)" fill="#f0a319"/>
  <path id="Path_50" data-name="Path 50" d="M156.232,149.845l-9.086-9.086a3.493,3.493,0,0,0-4.8-.113,9.905,9.905,0,0,0,14,14A3.493,3.493,0,0,0,156.232,149.845Zm0,0" transform="translate(-118.608 -118.646)" fill="#c0e6d9"/>
  <path id="Path_51" data-name="Path 51" d="M156.232,149.845l-9.086-9.086a3.493,3.493,0,0,0-4.8-.113,9.905,9.905,0,0,0,14,14A3.493,3.493,0,0,0,156.232,149.845Zm0,0" transform="translate(-118.608 -118.646)" fill="#133244"/>
  <path id="Path_52" data-name="Path 52" d="M150,140.646l-.071.077c-3.941,4.366,2.6,10.905,6.964,6.964l.078-.071a3.492,3.492,0,0,0-.114-4.8l-2.058-2.058A3.493,3.493,0,0,0,150,140.646Zm0,0" transform="translate(-126.257 -118.646)" fill="#275874"/>
  <path id="Path_53" data-name="Path 53" d="M180.3,222.152a1.746,1.746,0,0,0-1.037.34,6.4,6.4,0,0,1-2.028.993l-.06.018-.061.015a6.426,6.426,0,0,1-4.424-.415,1.757,1.757,0,0,0-1.533,3.161,9.86,9.86,0,0,0,3.194.921h0l.014,0h0l.073.008h0l.013,0h.032l.056.005h.048l.054,0h.064l.037,0h.069l.034,0h1.038l.042,0h0a9.956,9.956,0,0,0,2.092-.323l.086-.025.084-.022a9.926,9.926,0,0,0,3.154-1.544,1.758,1.758,0,0,0-1.045-3.171Zm0,0" transform="translate(-144.475 -188.61)" fill="#0d232f"/>
  <path id="Path_54" data-name="Path 54" d="M166.424,141.394a1.757,1.757,0,1,1-1.757-1.757A1.757,1.757,0,0,1,166.424,141.394Zm0,0" transform="translate(-138.312 -118.553)" fill="#f2f9f6"/>
  <path id="Path_55" data-name="Path 55" d="M222.247,23.273h-1.182l-.013,0h-.006l-.015,0h0l-.019,0h0l-.017,0h-.082l-.011,0h-.026l-.012,0-.019,0h-.005l-.038,0h0l-.015,0h-.044l-.012,0h-.007l-.012,0H220.7l-.012,0h-.006l-.012,0h-.007l-.014,0h0l-.018,0-.038.005h0l-.016,0h0l-.014,0h-.005l-.014,0h-.006l-.012,0h-.006l-.013,0h-.006l-.013,0h-.005l-.014,0h0l-.017,0h0l-.056.008h-.005l-.013,0h-.006l-.013,0h-.006l-.012,0h-.006l-.012,0H220.3l-.014,0h0l-.015,0h0l-.017,0h0l-.056.009h0l-.018,0h0l-.015,0h0l-.014,0h0l-.014,0h0l-.014,0h-.005l-.014,0h0l-.015,0h0l-.018,0h0l-.056.011h0l-.017,0h0l-.015,0h0l-.014,0h-.005l-.014,0h0l-.014,0h0l-.015,0h0l-.017,0h0l-.056.011h0l-.017,0h0l-.015,0h0l-.014,0h0l-.014,0h0l-.014,0h0l-.015,0h0l-.017,0h0l-.074.016h0l-.017,0h0l-.015,0h0l-.015,0h0l-.015,0h0l-.015,0h0l-.017,0h0l-.092.022h0l-.016,0h0l-.015,0h0l-.015,0h0l-.015,0-.019,0h0l-.11.028h0l-.017,0h0l-.019,0-.016,0h0l-.017,0h0l-.146.04h0l-.017.005h0l-.018,0h0l-.145.041h0l-.018,0h0l-.017,0h0l-.018.005-.126.038h0l-.017.005h0l-.018.005h0a12.311,12.311,0,0,0-8.484,10,3.514,3.514,0,0,0,6.959.979,5.288,5.288,0,0,1,5.218-4.514,3.514,3.514,0,0,0,.006-7.028Zm0,0" transform="translate(-178.323 -19.759)" fill="#fbe9cc"/>
</svg>
